HIERARCHY
ROOT Hips
{
	OFFSET 0.0000 0.0000 0.0000
	CHANNELS 6 Xposition Yposition Zposition Zrotation Xrotation Yrotation
	JOINT Spine1
	{
		OFFSET -0.0137 5.0038 -0.0537
		CHANNELS 3 Zrotation Xrotation Yrotation
		JOINT Spine2
		{
			OFFSET -0.0000 7.1253 -0.0298
			CHANNELS 3 Zrotation Xrotation Yrotation
			JOINT Chest
			{
				OFFSET -0.0000 7.5501 -0.8160
				CHANNELS 3 Zrotation Xrotation Yrotation
				JOINT Neck1
				{
					OFFSET -0.1817 26.3113 -0.5533
					CHANNELS 3 Zrotation Xrotation Yrotation
					JOINT Neck2
					{
						OFFSET -0.0000 7.7094 2.3026
						CHANNELS 3 Zrotation Xrotation Yrotation
						JOINT Head
						{
							OFFSET -0.0000 6.1289 1.9537
							CHANNELS 3 Zrotation Xrotation Yrotation
							JOINT Jaw
							{
								OFFSET 0.0026 0.4756 3.0949
								CHANNELS 3 Zrotation Xrotation Yrotation
								End Site
								{
									OFFSET 0.0 1.0 0.0
								}
							}
							JOINT LeftEye
							{
								OFFSET 3.2064 5.3802 7.5869
								CHANNELS 3 Zrotation Xrotation Yrotation
								End Site
								{
									OFFSET 0.0 1.0 0.0
								}
							}
							JOINT RightEye
							{
								OFFSET -3.2224 5.3619 7.5582
								CHANNELS 3 Zrotation Xrotation Yrotation
								End Site
								{
									OFFSET 0.0 1.0 0.0
								}
							}
						}
					}
				}
				JOINT LeftShoulder
				{
					OFFSET 1.6217 23.2372 5.1134
					CHANNELS 3 Zrotation Xrotation Yrotation
					JOINT LeftArm
					{
						OFFSET 14.9198 0.0000 -5.5023
						CHANNELS 3 Zrotation Xrotation Yrotation
						JOINT LeftForeArm
						{
							OFFSET 28.7393 0.0000 -0.0026
							CHANNELS 3 Zrotation Xrotation Yrotation
							JOINT LeftHand
							{
								OFFSET 27.0940 -0.0000 0.0026
								CHANNELS 3 Zrotation Xrotation Yrotation
								JOINT LeftHandThumbEnd
								{
									OFFSET 12.2686 -3.2202 4.8331
									CHANNELS 3 Zrotation Xrotation Yrotation
									End Site
									{
										OFFSET 0.0 1.0 0.0
									}
								}
								JOINT LeftHandMiddleEnd
								{
									OFFSET 19.0120 -0.3129 -0.0340
									CHANNELS 3 Zrotation Xrotation Yrotation
									End Site
									{
										OFFSET 0.0 1.0 0.0
									}
								}
							}
						}
					}
				}
				JOINT RightShoulder
				{
					OFFSET -1.3801 23.1803 5.2142
					CHANNELS 3 Zrotation Xrotation Yrotation
					JOINT RightArm
					{
						OFFSET -15.0372 0.0000 -5.5456
						CHANNELS 3 Zrotation Xrotation Yrotation
						JOINT RightForeArm
						{
							OFFSET -28.7366 0.0000 -0.0026
							CHANNELS 3 Zrotation Xrotation Yrotation
							JOINT RightHand
							{
								OFFSET -27.1336 -0.0000 0.0026
								CHANNELS 3 Zrotation Xrotation Yrotation
								JOINT RightHandThumbEnd
								{
									OFFSET -12.2642 -3.2115 4.8040
									CHANNELS 3 Zrotation Xrotation Yrotation
									End Site
									{
										OFFSET 0.0 1.0 0.0
									}
								}
								JOINT RightHandMiddleEnd
								{
									OFFSET -19.0006 -0.3066 -0.0316
									CHANNELS 3 Zrotation Xrotation Yrotation
									End Site
									{
										OFFSET 0.0 1.0 0.0
									}
								}
							}
						}
					}
				}
			}
		}
	}
	JOINT LeftLeg
	{
		OFFSET 10.0432 -8.4345 2.5957
		CHANNELS 3 Zrotation Xrotation Yrotation
		JOINT LeftShin
		{
			OFFSET -0.0000 -43.2218 -0.8029
			CHANNELS 3 Zrotation Xrotation Yrotation
			JOINT LeftFoot
			{
				OFFSET 0.0000 -42.1551 -3.4815
				CHANNELS 3 Zrotation Xrotation Yrotation
				JOINT LeftToeBase
				{
					OFFSET 0.0000 -5.0595 13.2315
					CHANNELS 3 Zrotation Xrotation Yrotation
					End Site
					{
						OFFSET 0.0 1.0 0.0
					}
				}
			}
		}
	}
	JOINT RightLeg
	{
		OFFSET -10.0473 -8.2953 2.6203
		CHANNELS 3 Zrotation Xrotation Yrotation
		JOINT RightShin
		{
			OFFSET 0.0000 -43.3622 -0.8056
			CHANNELS 3 Zrotation Xrotation Yrotation
			JOINT RightFoot
			{
				OFFSET 0.0000 -42.1174 -3.4784
				CHANNELS 3 Zrotation Xrotation Yrotation
				JOINT RightToeBase
				{
					OFFSET -0.0000 -5.0796 13.2842
					CHANNELS 3 Zrotation Xrotation Yrotation
					End Site
					{
						OFFSET 0.0 1.0 0.0
					}
				}
			}
		}
	}
}
MOTION
Frames: 14
Frame Time: 0.033333
1.1628 90.7974 -1.7075 4.6646 -4.1346 -0.7467 0.3364 7.9976 -0.7700 0.0709 -2.3972 -1.7175 1.2670 18.0074 -3.4947 10.3191 15.3597 -0.3196 -4.4838 -4.2117 -15.1902 1.9908 -16.1995 -18.8016 -0.0072 -0.0042 0.0813 0.6792 -10.5842 -3.7425 -0.6855 -10.5397 3.8683 -12.7211 13.9335 -15.6798 -53.7354 -9.5360 -10.5954 -0.0968 0.2222 -90.8127 9.2524 -13.4733 -20.2377 -14.7984 10.8177 15.7429 -59.3129 1.8524 2.3544 12.9063 9.8103 16.8886 36.4290 -26.6827 -7.5429 0.1245 0.5054 97.3415 -28.7410 -12.3065 16.4494 15.9499 7.5987 -16.1321 50.0399 -3.4499 -5.3240 10.4215 -10.0113 21.9866 -0.2672 40.2288 -0.7190 -16.4527 -23.3446 7.1519 1.6253 -0.7119 -2.0745 -14.8646 -39.0630 -27.2995 0.4459 39.6451 0.4095 7.5184 0.1069 5.5514 -1.4347 0.0599 0.8345
1.1316 90.8882 -1.6626 4.6620 -4.0643 -0.7591 0.3616 8.0073 -0.8388 0.1290 -2.3853 -1.6170 1.2835 17.9578 -3.5703 10.3490 15.2106 -0.3172 -4.5182 -4.2424 -15.2314 1.9785 -15.8993 -18.7835 -0.0149 -0.0285 0.0842 0.6637 -10.5954 -3.7415 -0.6848 -10.5548 3.8751 -12.7215 13.9523 -15.6649 -53.7017 -9.5280 -10.5692 -0.0786 0.2125 -90.9212 9.1606 -13.2867 -20.3177 -14.7976 10.7698 15.6864 -59.2439 1.8426 2.3834 12.7722 9.7310 16.8730 36.4542 -26.8483 -7.6548 0.1857 0.4280 97.4264 -28.4871 -12.3354 16.4431 15.9958 7.6578 -16.2212 50.0334 -3.4340 -5.2966 10.3828 -9.9510 21.9814 -0.2920 39.9404 -0.7699 -16.4762 -23.2437 7.0632 1.6348 -0.7469 -2.0736 -14.7955 -38.9593 -27.2346 0.4258 39.4320 0.4024 7.6309 0.2154 5.4016 -1.4418 0.0228 0.8453
1.0691 90.9146 -1.6490 4.6889 -4.0022 -0.7602 0.3816 8.0237 -0.8699 0.1607 -2.3655 -1.5707 1.3094 17.9396 -3.5828 10.4075 15.0937 -0.2887 -4.5541 -4.2708 -15.2906 2.0054 -15.7325 -18.7983 -0.0174 -0.0391 0.0876 0.6543 -10.6143 -3.7391 -0.6800 -10.5738 3.8797 -12.6762 13.9605 -15.7044 -53.6637 -9.4879 -10.4997 -0.0808 0.2114 -91.1331 9.0577 -13.1796 -20.3051 -14.8245 10.7404 15.6768 -59.2374 1.8220 2.4130 12.6302 9.6748 16.8921 36.4986 -27.0045 -7.8326 0.1568 0.3347 97.5742 -28.2940 -12.2181 16.2841 16.0397 7.6703 -16.2899 49.9700 -3.4561 -5.3207 10.3511 -9.9606 22.0094 -0.3018 39.8072 -0.7955 -16.4411 -23.1834 6.9606 1.6435 -0.7338 -2.0790 -14.7501 -39.0294 -27.2452 0.4339 39.4549 0.4172 7.6718 0.2288 5.3728 -1.4418 0.0413 0.8517
0.9697 90.9160 -1.6373 4.7187 -3.9499 -0.7497 0.4021 8.0421 -0.8632 0.1809 -2.3525 -1.5541 1.3439 17.9173 -3.5667 10.4330 15.0363 -0.2813 -4.5645 -4.2780 -15.3257 2.0538 -15.6851 -18.8142 -0.0172 -0.0413 0.0885 0.6528 -10.6291 -3.7424 -0.6777 -10.5880 3.8840 -12.6467 13.9378 -15.7325 -53.6513 -9.4058 -10.4162 -0.1581 0.2349 -91.3142 8.9847 -13.0568 -20.3156 -14.8160 10.7344 15.6757 -59.2575 1.8216 2.4229 12.4904 9.6589 16.9353 36.5609 -27.1177 -8.0394 0.1079 0.3406 97.7061 -28.2090 -12.0978 16.0925 16.0925 7.6700 -16.3313 49.9782 -3.4714 -5.3562 10.3396 -10.0038 22.0510 -0.3028 39.7264 -0.7957 -16.4221 -23.1232 6.8837 1.6459 -0.7279 -2.0909 -14.7172 -39.1138 -27.2837 0.4242 39.5454 0.4026 7.7045 0.1815 5.4389 -1.4405 0.0289 0.8482
0.8709 90.9186 -1.6459 4.7376 -3.9081 -0.7290 0.4373 8.0750 -0.8404 0.1955 -2.3484 -1.5554 1.3634 17.9164 -3.5400 10.4228 14.9678 -0.2896 -4.5504 -4.2770 -15.3278 2.1089 -15.6974 -18.8414 -0.0170 -0.0376 0.0892 0.6502 -10.6341 -3.7456 -0.6740 -10.5939 3.8865 -12.6227 13.9235 -15.7579 -53.6490 -9.3557 -10.3319 -0.2331 0.2468 -91.5026 8.9763 -12.8619 -20.3301 -14.8387 10.7306 15.6530 -59.2841 1.8393 2.3991 12.3718 9.6630 16.9822 36.6745 -27.3044 -8.2732 0.0987 0.3448 97.8530 -28.1107 -12.0348 15.9388 16.1192 7.6600 -16.3431 49.9593 -3.4776 -5.3906 10.3573 -10.0784 22.1020 -0.2975 39.6998 -0.7923 -16.4282 -23.0581 6.7866 1.6447 -0.7154 -2.0872 -14.6594 -39.1904 -27.3422 0.4090 39.6552 0.3810 7.7224 0.1148 5.4989 -1.4380 0.0266 0.8450
0.7635 90.9043 -1.6579 4.7644 -3.8728 -0.7125 0.4705 8.1287 -0.8257 0.2091 -2.3382 -1.5521 1.3585 17.9153 -3.5332 10.3986 14.8954 -0.2931 -4.5364 -4.2763 -15.3235 2.1896 -15.7052 -18.8764 -0.0177 -0.0353 0.0938 0.6473 -10.6323 -3.7416 -0.6724 -10.5916 3.8917 -12.6128 13.9109 -15.7661 -53.6618 -9.3344 -10.2518 -0.2886 0.2991 -91.6664 8.9769 -12.6965 -20.3699 -14.8608 10.7227 15.5966 -59.3102 1.8565 2.3603 12.2800 9.6531 17.0594 36.8179 -27.5324 -8.5051 0.1197 0.3497 97.9808 -27.9922 -12.0120 15.8060 16.1288 7.6357 -16.3337 49.8955 -3.4886 -5.4062 10.3879 -10.1558 22.1637 -0.2935 39.7164 -0.7908 -16.4452 -23.0194 6.7206 1.6431 -0.6940 -2.0837 -14.5947 -39.2875 -27.4203 0.4045 39.7872 0.3729 7.7190 0.0324 5.5468 -1.4368 0.0474 0.8427
0.6409 90.8778 -1.6449 4.7936 -3.8341 -0.6983 0.5005 8.1821 -0.8504 0.2207 -2.3070 -1.5144 1.3395 17.9028 -3.5348 10.3456 14.8101 -0.2928 -4.5173 -4.2773 -15.3092 2.2328 -15.7431 -18.8412 -0.0193 -0.0370 0.0918 0.6414 -10.6303 -3.7445 -0.6699 -10.5924 3.8924 -12.6342 13.8951 -15.7703 -53.6836 -9.2990 -10.2044 -0.3184 0.3523 -91.8013 8.9580 -12.5622 -20.4397 -14.8438 10.7196 15.5755 -59.3187 1.8681 2.3390 12.2144 9.6462 17.1231 36.9817 -27.7327 -8.6996 0.0993 0.3566 98.1254 -27.8358 -11.9876 15.6643 16.1389 7.6271 -16.3475 49.8822 -3.4933 -5.4139 10.4199 -10.2358 22.1639 -0.2839 39.7362 -0.7671 -16.4946 -22.9732 6.6893 1.6430 -0.6786 -2.0822 -14.5191 -39.4065 -27.5182 0.4131 39.9560 0.3825 7.6671 -0.0811 5.5796 -1.4350 0.0432 0.8322
0.5368 90.8301 -1.6632 4.8337 -3.7984 -0.6943 0.5310 8.2541 -0.8472 0.2333 -2.2880 -1.5238 1.2986 17.9123 -3.5344 10.3096 14.7206 -0.2616 -4.5081 -4.2759 -15.2931 2.2844 -15.8031 -18.8298 -0.0226 -0.0368 0.0951 0.6359 -10.6288 -3.7395 -0.6709 -10.5889 3.8957 -12.6795 13.9004 -15.7761 -53.6992 -9.2758 -10.1712 -0.3315 0.3751 -91.9122 8.9491 -12.5038 -20.4841 -14.8177 10.7242 15.5605 -59.3172 1.8644 2.3266 12.1582 9.6600 17.2055 37.1380 -27.9650 -8.8968 0.1008 0.3426 98.2572 -27.7189 -11.9733 15.5473 16.1433 7.6245 -16.3593 49.8515 -3.4883 -5.4127 10.4517 -10.3232 22.1589 -0.2874 39.8176 -0.7628 -16.5718 -22.9660 6.6896 1.6433 -0.6825 -2.0775 -14.4707 -39.5773 -27.5685 0.4153 40.2102 0.3902 7.5913 -0.2324 5.6089 -1.4340 0.0195 0.8262
0.4224 90.7772 -1.6600 4.8797 -3.7603 -0.6879 0.5622 8.3162 -0.8446 0.2348 -2.2698 -1.5213 1.2552 17.9441 -3.5629 10.2722 14.6315 -0.2175 -4.4773 -4.2729 -15.3005 2.2881 -15.8835 -18.7957 -0.0249 -0.0368 0.0963 0.6309 -10.6345 -3.7379 -0.6704 -10.5970 3.8969 -12.7803 13.9041 -15.7905 -53.6679 -9.2170 -10.2169 -0.2797 0.3806 -91.9873 8.9419 -12.4520 -20.5193 -14.8021 10.7066 15.5306 -59.3171 1.8452 2.3171 12.1138 9.6738 17.2695 37.2733 -28.1730 -9.0224 0.0781 0.3149 98.3494 -27.6048 -11.9399 15.4585 16.1660 7.6220 -16.3659 49.8692 -3.4817 -5.3982 10.4654 -10.4159 22.1224 -0.2885 39.9257 -0.7531 -16.6338 -22.9899 6.7109 1.6439 -0.6704 -2.0765 -14.4415 -39.7844 -27.6079 0.4203 40.5204 0.3945 7.5005 -0.4181 5.6791 -1.4343 0.0117 0.8185
0.3216 90.7066 -1.6817 4.9285 -3.7453 -0.6843 0.5910 8.3915 -0.8548 0.2431 -2.2397 -1.5222 1.1998 17.9901 -3.5989 10.2106 14.5404 -0.1793 -4.4365 -4.2616 -15.2912 2.2789 -15.9750 -18.7748 -0.0237 -0.0354 0.0896 0.6318 -10.6357 -3.7437 -0.6689 -10.5980 3.8891 -12.9062 13.9193 -15.8165 -53.6303 -9.2398 -10.2640 -0.2604 0.4004 -91.9848 8.8949 -12.4036 -20.5419 -14.7889 10.7295 15.5453 -59.3551 1.8372 2.3173 12.0521 9.6917 17.3118 37.3930 -28.3737 -9.0672 0.0120 0.2945 98.4338 -27.5136 -11.9047 15.3889 16.1740 7.6294 -16.3774 49.8724 -3.4651 -5.3919 10.4888 -10.5065 22.0636 -0.2906 40.0770 -0.7485 -16.6926 -23.0353 6.7415 1.6455 -0.6597 -2.0785 -14.4446 -39.9983 -27.5957 0.4343 40.8981 0.4129 7.4007 -0.6257 5.7222 -1.4337 0.0388 0.8165
0.2253 90.6209 -1.6817 4.9870 -3.7495 -0.6621 0.6223 8.4581 -0.8640 0.2409 -2.2021 -1.5271 1.1418 18.0642 -3.6457 10.1567 14.4461 -0.1638 -4.4183 -4.2557 -15.3059 2.2862 -16.0838 -18.8131 -0.0215 -0.0349 0.0814 0.6342 -10.6268 -3.7500 -0.6668 -10.5883 3.8779 -13.0897 13.9132 -15.8402 -53.5544 -9.2282 -10.3868 -0.1915 0.4245 -91.9588 8.7963 -12.3959 -20.5536 -14.7997 10.7077 15.5308 -59.3469 1.8183 2.3132 12.0165 9.7269 17.3312 37.5107 -28.6129 -9.1199 0.0242 0.2966 98.5043 -27.4930 -11.9215 15.3742 16.1767 7.6144 -16.3639 49.8545 -3.4768 -5.3751 10.5131 -10.6078 21.9954 -0.2909 40.3049 -0.7354 -16.7286 -23.1207 6.7713 1.6461 -0.6455 -2.0824 -14.4820 -40.2201 -27.5805 0.4450 41.3301 0.4293 7.3057 -0.8616 5.7626 -1.4345 0.0819 0.8144
0.1242 90.5068 -1.6741 5.0463 -3.7850 -0.6371 0.6569 8.5257 -0.8617 0.2352 -2.1693 -1.5446 1.0725 18.1621 -3.6930 10.1109 14.3679 -0.1584 -4.3976 -4.2534 -15.3399 2.2676 -16.2276 -18.8348 -0.0189 -0.0342 0.0710 0.6376 -10.6165 -3.7591 -0.6654 -10.5815 3.8663 -13.2822 13.9074 -15.8854 -53.4785 -9.2732 -10.5138 -0.1395 0.4207 -91.8720 8.6785 -12.4550 -20.5520 -14.8005 10.6952 15.5222 -59.3438 1.8027 2.3073 11.9952 9.7899 17.3229 37.6151 -28.8735 -9.1518 0.0642 0.2658 98.5678 -27.4933 -11.8513 15.3427 16.1940 7.5968 -16.3618 49.8701 -3.4946 -5.3806 10.5498 -10.7040 21.8874 -0.2965 40.6167 -0.7291 -16.7870 -23.2581 6.8046 1.6453 -0.6361 -2.0989 -14.5669 -40.4434 -27.5306 0.4408 41.8394 0.4185 7.2172 -1.1404 5.8103 -1.4356 0.1079 0.8054
0.0340 90.3658 -1.6700 5.0944 -3.8621 -0.6053 0.6880 8.6018 -0.8408 0.2297 -2.1334 -1.5775 1.0115 18.2837 -3.7394 10.0842 14.3306 -0.1624 -4.3926 -4.2607 -15.3613 2.2507 -16.4115 -18.8519 -0.0168 -0.0331 0.0672 0.6416 -10.6027 -3.7605 -0.6655 -10.5692 3.8589 -13.4673 13.9070 -15.9441 -53.4083 -9.3556 -10.6602 -0.0981 0.4092 -91.7303 8.5756 -12.4686 -20.5425 -14.8176 10.6900 15.5163 -59.3677 1.7902 2.2963 11.9834 9.8413 17.3243 37.6787 -29.0725 -9.1626 0.1133 0.2142 98.5907 -27.5677 -11.7122 15.3572 16.1843 7.5572 -16.3377 49.8618 -3.5352 -5.3835 10.6236 -10.8012 21.7597 -0.3052 41.0197 -0.7252 -16.8762 -23.4487 6.8074 1.6430 -0.6332 -2.1118 -14.6870 -40.6649 -27.4661 0.4425 42.4199 0.4187 7.1261 -1.4312 5.8877 -1.4371 0.1052 0.8001
-0.0522 90.2054 -1.6507 5.1187 -3.9732 -0.6014 0.7072 8.6741 -0.8327 0.2312 -2.1004 -1.5963 0.9592 18.4292 -3.7625 10.0712 14.3188 -0.1699 -4.3777 -4.2747 -15.3993 2.2485 -16.6143 -18.8757 -0.0168 -0.0337 0.0679 0.6396 -10.5922 -3.7547 -0.6639 -10.5589 3.8555 -13.5949 13.9041 -15.9979 -53.3540 -9.4784 -10.8126 -0.0759 0.3681 -91.5533 8.4853 -12.4827 -20.5223 -14.8330 10.6986 15.5463 -59.4235 1.7738 2.2959 11.9987 9.9381 17.3041 37.7340 -29.2487 -9.1296 0.1441 0.1364 98.5673 -27.6563 -11.5640 15.3915 16.1746 7.5366 -16.3215 49.8844 -3.5636 -5.3827 10.7393 -10.9061 21.6311 -0.3100 41.4977 -0.7233 -16.9646 -23.7002 6.7912 1.6419 -0.6371 -2.1228 -14.7993 -40.8801 -27.4087 0.4381 43.0430 0.4086 7.0257 -1.7468 5.9599 -1.4356 0.0741 0.7956
